<svg width="44" height="24" viewBox="0 0 44 24" fill="none"
     xmlns="http://www.w3.org/2000/svg">
  <g clip-path="url(#clip0_526_2137)">
    <path
      d="M29.5913 1.21967C29.3585 0.356623 26.9739 0.812093 25.7016 0.724203C24.3857 0.636303 21.8848 0.820083 20.6416 0.348633C19.6091 0.412563 18.7222 1.20367 18.4604 2.32237L13.9238 21.8198C14.4182 24.241 16.3157 23.9693 18.8821 23.9933L18.9838 24.0333C20.1108 23.9613 20.9396 23.0904 21.434 21.9876C21.9138 20.9248 24.3857 14.4842 25.5563 11.7515C25.5853 11.6875 26.276 10.0414 26.305 9.98547L29.5913 1.21967Z"
      fill="#FFB422"/>
    <path
      d="M42.9835 18.3041C42.8817 17.8328 42.4963 17.4971 42.0529 17.4971H41.5875C40.7224 17.4971 39.8646 17.4971 38.9994 17.4971C38.1269 17.4971 36.7456 17.4971 36.0621 17.4012C34.7898 17.2174 34.0555 15.5153 33.772 14.141L33.6775 13.7654H41.9875L41.1368 10.2495C40.9769 9.58625 40.4316 9.13085 39.8064 9.13085H32.6742L31.9835 5.61485H40.228L39.7409 3.52935C39.0865 1.64345 37.4435 0.372958 35.575 0.372958L20.6055 0.333008C20.6201 0.340998 20.6274 0.340998 20.6346 0.348988C21.8778 0.820438 22.9101 1.81925 23.4628 3.12975C23.7463 3.80095 23.9644 4.56815 24.2043 5.43115L25.6292 11.5519L27.2214 18.3841C27.9994 21.7162 30.7257 24.0415 33.8592 24.0415L35.3132 24.0255C35.3788 24.0335 35.4515 24.0336 35.5241 24.0336H44.2121L42.9835 18.3041Z"
      fill="white"/>
    <path d="M14.6717 18.3915C14.6949 18.4799 14.6563 18.3111 14.6717 18.3915V18.3915Z"
          fill="#FFB422"/>
    <path
      d="M14.6869 18.4714C14.6798 18.4474 14.6725 18.4234 14.6725 18.3995L11.6116 5.26273C10.9355 2.35403 8.55085 0.316406 5.81721 0.316406L0.131836 0.332386L1.3096 0.795856C3.22896 1.60293 3.49076 3.28893 4.06505 5.40653L7.08221 18.3675C7.86015 21.6996 10.5865 24.025 13.72 24.025H18.9837L18.9328 24.001L18.882 23.985C16.7663 23.13 15.1886 20.8846 14.6869 18.4714Z"
      fill="white"/>
  </g>
  <defs>
    <clipPath id="clip0_526_2137">
      <rect width="44" height="24" fill="white"/>
    </clipPath>
  </defs>
</svg>
